<svg xmlns="http://www.w3.org/2000/svg" viewBox="0 0 32 32">
  <defs>
    <linearGradient id="bg" x1="0" y1="0" x2="1" y2="1">
      <stop offset="0%" stop-color="#e8613c"/>
      <stop offset="100%" stop-color="#f07a58"/>
    </linearGradient>
  </defs>
  <rect width="32" height="32" rx="7" fill="url(#bg)"/>
  <path d="M16 4 C16 4 9 6.5 7 9 C7 17 9 23 16 27 C23 23 25 17 25 9 C23 6.5 16 4 16 4Z" fill="none" stroke="white" stroke-width="1.2" stroke-linejoin="round" opacity="0.85"/>
  <path d="M19 12 C18 10.5 17 9.5 15 9.5 C12.5 9.5 11 11.5 11 15 L11 17 C11 20.5 12.5 22.5 15 22.5 C17 22.5 18 21.5 19 20" fill="none" stroke="white" stroke-width="2" stroke-linecap="round" stroke-linejoin="round"/>
</svg>
