<svg xmlns="http://www.w3.org/2000/svg" viewBox="0 0 512 512">
  <defs>
    <linearGradient id="bg" x1="0" y1="0" x2="1" y2="1">
      <stop offset="0%" stop-color="#e8613c"/>
      <stop offset="100%" stop-color="#f07a58"/>
    </linearGradient>
  </defs>
  <rect width="512" height="512" rx="112" fill="url(#bg)"/>
  <path d="M256 80 C256 80 144 120 112 160 C112 288 152 376 256 432 C360 376 400 288 400 160 C368 120 256 80 256 80Z" fill="none" stroke="white" stroke-width="18" stroke-linejoin="round" opacity="0.9"/>
  <path d="M300 200 C290 175 270 160 240 160 C200 160 175 190 175 240 L175 272 C175 322 200 352 240 352 C270 352 290 337 300 312" fill="none" stroke="white" stroke-width="28" stroke-linecap="round" stroke-linejoin="round"/>
</svg>
